<svg version="1.0" xmlns="http://www.w3.org/2000/svg"
 width="626.000000pt" height="626.000000pt" viewBox="0 0 626.000000 626.000000"
 >
<metadata>
Created by Himaf
</metadata>
<g transform="translate(0.000000,626.000000) scale(0.100000,-0.100000)"
fill="#0d6efd" stroke="none">
<path d="M5091 5724 c-12 -15 -26 -45 -31 -68 -38 -148 -116 -285 -294 -511
-133 -170 -153 -227 -86 -255 71 -29 141 19 241 168 45 67 51 72 44 42 -24
-114 -130 -321 -251 -489 -92 -127 -330 -365 -474 -473 -463 -346 -1062 -572
-1572 -595 -139 -6 -177 -14 -148 -32 59 -39 365 -39 570 -1 806 147 1544 632
1913 1255 38 64 113 242 143 338 10 31 21 57 25 57 3 0 25 -24 48 -54 58 -75
154 -164 185 -172 32 -8 66 18 66 51 0 12 -24 69 -54 126 -64 124 -110 248
-131 361 -41 213 -45 226 -76 253 -42 34 -91 34 -118 -1z"/>

    <path d="M3795 3615 c-102 -56 -198 -88 -395 -130 -88 -18 -168 -39 -180 -45
-75 -40 112 -37 279 4 121 31 247 87 337 151 61 44 79 66 52 64 -7 0 -49 -20
-93 -44z"/>

</g>
</svg>
